{
	"asset": {
		"version": "2.0",
		"generator": ""
	},
	"scenes": [
		{
			"nodes": [
				0,
				1,
				2,
				3,
				4,
				5,
				6,
				7,
				8,
				9,
				10,
				11,
				12
			]
		}
	],
	"nodes": [
		{
			"name": "T_entrance",
			"mesh": 0,
			"translation": [
				-41.442623138427737,
				0.22955015301704408,
				3.064432382583618
			],
			"rotation": [
				0.0,
				0.0,
				0.0,
				-1.0
			],
			"scale": [
				1.0,
				1.0,
				1.0
			]
		},
		{
			"name": "T_intersection_one",
			"mesh": 1,
			"translation": [
				-27.68085479736328,
				0.22955015301704408,
				3.064432382583618
			],
			"rotation": [
				0.0,
				0.0,
				0.0,
				-1.0
			],
			"scale": [
				1.0,
				1.0,
				1.0
			]
		},
		{
			"name": "T_intersection_two",
			"mesh": 2,
			"translation": [
				-4.422519683837891,
				0.22955015301704408,
				3.064432382583618
			],
			"rotation": [
				0.0,
				0.0,
				0.0,
				-1.0
			],
			"scale": [
				1.0,
				1.0,
				1.0
			]
		},
		{
			"name": "T_intersection_three",
			"mesh": 3,
			"translation": [
				4.158327102661133,
				0.22955015301704408,
				3.064432382583618
			],
			"rotation": [
				0.0,
				0.0,
				0.0,
				-1.0
			],
			"scale": [
				1.0,
				1.0,
				1.0
			]
		},
		{
			"name": "T_intersection_four",
			"mesh": 4,
			"translation": [
				28.12099266052246,
				0.22955015301704408,
				3.064432382583618
			],
			"rotation": [
				0.0,
				0.0,
				0.0,
				-1.0
			],
			"scale": [
				1.0,
				1.0,
				1.0
			]
		},
		{
			"name": "T_intersection_six",
			"mesh": 5,
			"translation": [
				-32.90348815917969,
				0.22955015301704408,
				-6.062680244445801
			],
			"rotation": [
				0.0,
				0.0,
				0.0,
				-1.0
			],
			"scale": [
				1.0,
				1.0,
				1.0
			]
		},
		{
			"name": "T_intersection_seven",
			"mesh": 6,
			"translation": [
				-4.422519683837891,
				0.22955015301704408,
				-5.384678363800049
			],
			"rotation": [
				0.0,
				0.0,
				0.0,
				-1.0
			],
			"scale": [
				1.0,
				1.0,
				1.0
			]
		},
		{
			"name": "T_intersection_nine",
			"mesh": 7,
			"translation": [
				28.538820266723634,
				0.22955015301704408,
				-12.597213745117188
			],
			"rotation": [
				0.0,
				0.0,
				0.0,
				-1.0
			],
			"scale": [
				1.0,
				1.0,
				1.0
			]
		},
		{
			"name": "T_intersection_ten",
			"mesh": 8,
			"translation": [
				4.428435325622559,
				0.22955015301704408,
				-12.597213745117188
			],
			"rotation": [
				0.0,
				0.0,
				0.0,
				-1.0
			],
			"scale": [
				1.0,
				1.0,
				1.0
			]
		},
		{
			"name": "T_intersection_eleven",
			"mesh": 9,
			"translation": [
				-4.871358871459961,
				0.22955015301704408,
				-12.597213745117188
			],
			"rotation": [
				0.0,
				0.0,
				0.0,
				-1.0
			],
			"scale": [
				1.0,
				1.0,
				1.0
			]
		},
		{
			"name": "T_intersection_twelve",
			"mesh": 10,
			"translation": [
				-28.123226165771486,
				0.22955015301704408,
				-12.597213745117188
			],
			"rotation": [
				0.0,
				0.0,
				0.0,
				-1.0
			],
			"scale": [
				1.0,
				1.0,
				1.0
			]
		},
		{
			"name": "T_intersection_eight",
			"mesh": 11,
			"translation": [
				-0.6097948551177979,
				0.22955015301704408,
				-5.384678363800049
			],
			"rotation": [
				0.0,
				0.0,
				0.0,
				-1.0
			],
			"scale": [
				1.0,
				1.0,
				1.0
			]
		},
		{
			"name": "T_intersection_thirteen",
			"mesh": 12,
			"translation": [
				-28.16862678527832,
				0.22955015301704408,
				-5.384678363800049
			],
			"rotation": [
				0.0,
				0.0,
				0.0,
				-1.0
			],
			"scale": [
				1.0,
				1.0,
				1.0
			]
		}
	],
	"meshes": [
		{
			"name": "T_entrance",
			"primitives": [
				{
					"attributes": {
						"POSITION": 1,
						"NORMAL": 2,
						"TEXCOORD_0": 3
					},
					"indices": 0
				}
			]
		},
		{
			"name": "T_intersection_one",
			"primitives": [
				{
					"attributes": {
						"POSITION": 5,
						"NORMAL": 6,
						"TEXCOORD_0": 7
					},
					"indices": 4
				}
			]
		},
		{
			"name": "T_intersection_two",
			"primitives": [
				{
					"attributes": {
						"POSITION": 9,
						"NORMAL": 10,
						"TEXCOORD_0": 11
					},
					"indices": 8
				}
			]
		},
		{
			"name": "T_intersection_three",
			"primitives": [
				{
					"attributes": {
						"POSITION": 13,
						"NORMAL": 14,
						"TEXCOORD_0": 15
					},
					"indices": 12
				}
			]
		},
		{
			"name": "T_intersection_four",
			"primitives": [
				{
					"attributes": {
						"POSITION": 17,
						"NORMAL": 18,
						"TEXCOORD_0": 19
					},
					"indices": 16
				}
			]
		},
		{
			"name": "T_intersection_six",
			"primitives": [
				{
					"attributes": {
						"POSITION": 21,
						"NORMAL": 22,
						"TEXCOORD_0": 23
					},
					"indices": 20
				}
			]
		},
		{
			"name": "T_intersection_seven",
			"primitives": [
				{
					"attributes": {
						"POSITION": 25,
						"NORMAL": 26,
						"TEXCOORD_0": 27
					},
					"indices": 24
				}
			]
		},
		{
			"name": "T_intersection_nine",
			"primitives": [
				{
					"attributes": {
						"POSITION": 29,
						"NORMAL": 30,
						"TEXCOORD_0": 31
					},
					"indices": 28
				}
			]
		},
		{
			"name": "T_intersection_ten",
			"primitives": [
				{
					"attributes": {
						"POSITION": 33,
						"NORMAL": 34,
						"TEXCOORD_0": 35
					},
					"indices": 32
				}
			]
		},
		{
			"name": "T_intersection_eleven",
			"primitives": [
				{
					"attributes": {
						"POSITION": 37,
						"NORMAL": 38,
						"TEXCOORD_0": 39
					},
					"indices": 36
				}
			]
		},
		{
			"name": "T_intersection_twelve",
			"primitives": [
				{
					"attributes": {
						"POSITION": 41,
						"NORMAL": 42,
						"TEXCOORD_0": 43
					},
					"indices": 40
				}
			]
		},
		{
			"name": "T_intersection_eight",
			"primitives": [
				{
					"attributes": {
						"POSITION": 45,
						"NORMAL": 46,
						"TEXCOORD_0": 47
					},
					"indices": 44
				}
			]
		},
		{
			"name": "T_intersection_thirteen",
			"primitives": [
				{
					"attributes": {
						"POSITION": 49,
						"NORMAL": 50,
						"TEXCOORD_0": 51
					},
					"indices": 48
				}
			]
		}
	],
	"accessors": [
		{
			"bufferView": 0,
			"type": "SCALAR",
			"componentType": 5123,
			"count": 36,
			"byteOffset": 0,
			"min": [
				0
			],
			"max": [
				35
			]
		},
		{
			"bufferView": 1,
			"type": "VEC3",
			"componentType": 5126,
			"count": 36,
			"byteOffset": 0,
			"min": [
				-0.22534263134002686,
				-0.22534263134002686,
				-0.22534263134002686
			],
			"max": [
				0.22534263134002686,
				0.22534263134002686,
				0.22534263134002686
			]
		},
		{
			"bufferView": 1,
			"type": "VEC3",
			"componentType": 5126,
			"count": 36,
			"byteOffset": 12,
			"min": [
				-1.0,
				-1.0,
				-1.0
			],
			"max": [
				1.0,
				1.0,
				1.0
			]
		},
		{
			"bufferView": 1,
			"type": "VEC2",
			"componentType": 5126,
			"count": 36,
			"byteOffset": 24,
			"min": [
				0.0,
				0.0
			],
			"max": [
				1.0,
				1.0
			]
		},
		{
			"bufferView": 2,
			"type": "SCALAR",
			"componentType": 5123,
			"count": 36,
			"byteOffset": 0,
			"min": [
				0
			],
			"max": [
				35
			]
		},
		{
			"bufferView": 3,
			"type": "VEC3",
			"componentType": 5126,
			"count": 36,
			"byteOffset": 0,
			"min": [
				-0.22534263134002686,
				-0.22534263134002686,
				-0.22534263134002686
			],
			"max": [
				0.22534263134002686,
				0.22534263134002686,
				0.22534263134002686
			]
		},
		{
			"bufferView": 3,
			"type": "VEC3",
			"componentType": 5126,
			"count": 36,
			"byteOffset": 12,
			"min": [
				-1.0,
				-1.0,
				-1.0
			],
			"max": [
				1.0,
				1.0,
				1.0
			]
		},
		{
			"bufferView": 3,
			"type": "VEC2",
			"componentType": 5126,
			"count": 36,
			"byteOffset": 24,
			"min": [
				0.0,
				0.0
			],
			"max": [
				1.0,
				1.0
			]
		},
		{
			"bufferView": 4,
			"type": "SCALAR",
			"componentType": 5123,
			"count": 36,
			"byteOffset": 0,
			"min": [
				0
			],
			"max": [
				35
			]
		},
		{
			"bufferView": 5,
			"type": "VEC3",
			"componentType": 5126,
			"count": 36,
			"byteOffset": 0,
			"min": [
				-0.22534263134002686,
				-0.22534263134002686,
				-0.22534263134002686
			],
			"max": [
				0.22534263134002686,
				0.22534263134002686,
				0.22534263134002686
			]
		},
		{
			"bufferView": 5,
			"type": "VEC3",
			"componentType": 5126,
			"count": 36,
			"byteOffset": 12,
			"min": [
				-1.0,
				-1.0,
				-1.0
			],
			"max": [
				1.0,
				1.0,
				1.0
			]
		},
		{
			"bufferView": 5,
			"type": "VEC2",
			"componentType": 5126,
			"count": 36,
			"byteOffset": 24,
			"min": [
				0.0,
				0.0
			],
			"max": [
				1.0,
				1.0
			]
		},
		{
			"bufferView": 6,
			"type": "SCALAR",
			"componentType": 5123,
			"count": 36,
			"byteOffset": 0,
			"min": [
				0
			],
			"max": [
				35
			]
		},
		{
			"bufferView": 7,
			"type": "VEC3",
			"componentType": 5126,
			"count": 36,
			"byteOffset": 0,
			"min": [
				-0.22534263134002686,
				-0.22534263134002686,
				-0.22534263134002686
			],
			"max": [
				0.22534263134002686,
				0.22534263134002686,
				0.22534263134002686
			]
		},
		{
			"bufferView": 7,
			"type": "VEC3",
			"componentType": 5126,
			"count": 36,
			"byteOffset": 12,
			"min": [
				-1.0,
				-1.0,
				-1.0
			],
			"max": [
				1.0,
				1.0,
				1.0
			]
		},
		{
			"bufferView": 7,
			"type": "VEC2",
			"componentType": 5126,
			"count": 36,
			"byteOffset": 24,
			"min": [
				0.0,
				0.0
			],
			"max": [
				1.0,
				1.0
			]
		},
		{
			"bufferView": 8,
			"type": "SCALAR",
			"componentType": 5123,
			"count": 36,
			"byteOffset": 0,
			"min": [
				0
			],
			"max": [
				35
			]
		},
		{
			"bufferView": 9,
			"type": "VEC3",
			"componentType": 5126,
			"count": 36,
			"byteOffset": 0,
			"min": [
				-0.22534263134002686,
				-0.22534263134002686,
				-0.22534263134002686
			],
			"max": [
				0.22534263134002686,
				0.22534263134002686,
				0.22534263134002686
			]
		},
		{
			"bufferView": 9,
			"type": "VEC3",
			"componentType": 5126,
			"count": 36,
			"byteOffset": 12,
			"min": [
				-1.0,
				-1.0,
				-1.0
			],
			"max": [
				1.0,
				1.0,
				1.0
			]
		},
		{
			"bufferView": 9,
			"type": "VEC2",
			"componentType": 5126,
			"count": 36,
			"byteOffset": 24,
			"min": [
				0.0,
				0.0
			],
			"max": [
				1.0,
				1.0
			]
		},
		{
			"bufferView": 10,
			"type": "SCALAR",
			"componentType": 5123,
			"count": 36,
			"byteOffset": 0,
			"min": [
				0
			],
			"max": [
				35
			]
		},
		{
			"bufferView": 11,
			"type": "VEC3",
			"componentType": 5126,
			"count": 36,
			"byteOffset": 0,
			"min": [
				-0.22534263134002686,
				-0.22534263134002686,
				-0.22534263134002686
			],
			"max": [
				0.22534263134002686,
				0.22534263134002686,
				0.22534263134002686
			]
		},
		{
			"bufferView": 11,
			"type": "VEC3",
			"componentType": 5126,
			"count": 36,
			"byteOffset": 12,
			"min": [
				-1.0,
				-1.0,
				-1.0
			],
			"max": [
				1.0,
				1.0,
				1.0
			]
		},
		{
			"bufferView": 11,
			"type": "VEC2",
			"componentType": 5126,
			"count": 36,
			"byteOffset": 24,
			"min": [
				0.0,
				0.0
			],
			"max": [
				1.0,
				1.0
			]
		},
		{
			"bufferView": 12,
			"type": "SCALAR",
			"componentType": 5123,
			"count": 36,
			"byteOffset": 0,
			"min": [
				0
			],
			"max": [
				35
			]
		},
		{
			"bufferView": 13,
			"type": "VEC3",
			"componentType": 5126,
			"count": 36,
			"byteOffset": 0,
			"min": [
				-0.22534263134002686,
				-0.22534263134002686,
				-0.22534263134002686
			],
			"max": [
				0.22534263134002686,
				0.22534263134002686,
				0.22534263134002686
			]
		},
		{
			"bufferView": 13,
			"type": "VEC3",
			"componentType": 5126,
			"count": 36,
			"byteOffset": 12,
			"min": [
				-1.0,
				-1.0,
				-1.0
			],
			"max": [
				1.0,
				1.0,
				1.0
			]
		},
		{
			"bufferView": 13,
			"type": "VEC2",
			"componentType": 5126,
			"count": 36,
			"byteOffset": 24,
			"min": [
				0.0,
				0.0
			],
			"max": [
				1.0,
				1.0
			]
		},
		{
			"bufferView": 14,
			"type": "SCALAR",
			"componentType": 5123,
			"count": 36,
			"byteOffset": 0,
			"min": [
				0
			],
			"max": [
				35
			]
		},
		{
			"bufferView": 15,
			"type": "VEC3",
			"componentType": 5126,
			"count": 36,
			"byteOffset": 0,
			"min": [
				-0.22534263134002686,
				-0.22534263134002686,
				-0.22534263134002686
			],
			"max": [
				0.22534263134002686,
				0.22534263134002686,
				0.22534263134002686
			]
		},
		{
			"bufferView": 15,
			"type": "VEC3",
			"componentType": 5126,
			"count": 36,
			"byteOffset": 12,
			"min": [
				-1.0,
				-1.0,
				-1.0
			],
			"max": [
				1.0,
				1.0,
				1.0
			]
		},
		{
			"bufferView": 15,
			"type": "VEC2",
			"componentType": 5126,
			"count": 36,
			"byteOffset": 24,
			"min": [
				0.0,
				0.0
			],
			"max": [
				1.0,
				1.0
			]
		},
		{
			"bufferView": 16,
			"type": "SCALAR",
			"componentType": 5123,
			"count": 36,
			"byteOffset": 0,
			"min": [
				0
			],
			"max": [
				35
			]
		},
		{
			"bufferView": 17,
			"type": "VEC3",
			"componentType": 5126,
			"count": 36,
			"byteOffset": 0,
			"min": [
				-0.22534263134002686,
				-0.22534263134002686,
				-0.22534263134002686
			],
			"max": [
				0.22534263134002686,
				0.22534263134002686,
				0.22534263134002686
			]
		},
		{
			"bufferView": 17,
			"type": "VEC3",
			"componentType": 5126,
			"count": 36,
			"byteOffset": 12,
			"min": [
				-1.0,
				-1.0,
				-1.0
			],
			"max": [
				1.0,
				1.0,
				1.0
			]
		},
		{
			"bufferView": 17,
			"type": "VEC2",
			"componentType": 5126,
			"count": 36,
			"byteOffset": 24,
			"min": [
				0.0,
				0.0
			],
			"max": [
				1.0,
				1.0
			]
		},
		{
			"bufferView": 18,
			"type": "SCALAR",
			"componentType": 5123,
			"count": 36,
			"byteOffset": 0,
			"min": [
				0
			],
			"max": [
				35
			]
		},
		{
			"bufferView": 19,
			"type": "VEC3",
			"componentType": 5126,
			"count": 36,
			"byteOffset": 0,
			"min": [
				-0.22534263134002686,
				-0.22534263134002686,
				-0.22534263134002686
			],
			"max": [
				0.22534263134002686,
				0.22534263134002686,
				0.22534263134002686
			]
		},
		{
			"bufferView": 19,
			"type": "VEC3",
			"componentType": 5126,
			"count": 36,
			"byteOffset": 12,
			"min": [
				-1.0,
				-1.0,
				-1.0
			],
			"max": [
				1.0,
				1.0,
				1.0
			]
		},
		{
			"bufferView": 19,
			"type": "VEC2",
			"componentType": 5126,
			"count": 36,
			"byteOffset": 24,
			"min": [
				0.0,
				0.0
			],
			"max": [
				1.0,
				1.0
			]
		},
		{
			"bufferView": 20,
			"type": "SCALAR",
			"componentType": 5123,
			"count": 36,
			"byteOffset": 0,
			"min": [
				0
			],
			"max": [
				35
			]
		},
		{
			"bufferView": 21,
			"type": "VEC3",
			"componentType": 5126,
			"count": 36,
			"byteOffset": 0,
			"min": [
				-0.22534263134002686,
				-0.22534263134002686,
				-0.22534263134002686
			],
			"max": [
				0.22534263134002686,
				0.22534263134002686,
				0.22534263134002686
			]
		},
		{
			"bufferView": 21,
			"type": "VEC3",
			"componentType": 5126,
			"count": 36,
			"byteOffset": 12,
			"min": [
				-1.0,
				-1.0,
				-1.0
			],
			"max": [
				1.0,
				1.0,
				1.0
			]
		},
		{
			"bufferView": 21,
			"type": "VEC2",
			"componentType": 5126,
			"count": 36,
			"byteOffset": 24,
			"min": [
				0.0,
				0.0
			],
			"max": [
				1.0,
				1.0
			]
		},
		{
			"bufferView": 22,
			"type": "SCALAR",
			"componentType": 5123,
			"count": 36,
			"byteOffset": 0,
			"min": [
				0
			],
			"max": [
				35
			]
		},
		{
			"bufferView": 23,
			"type": "VEC3",
			"componentType": 5126,
			"count": 36,
			"byteOffset": 0,
			"min": [
				-0.22534263134002686,
				-0.22534263134002686,
				-0.22534263134002686
			],
			"max": [
				0.22534263134002686,
				0.22534263134002686,
				0.22534263134002686
			]
		},
		{
			"bufferView": 23,
			"type": "VEC3",
			"componentType": 5126,
			"count": 36,
			"byteOffset": 12,
			"min": [
				-1.0,
				-1.0,
				-1.0
			],
			"max": [
				1.0,
				1.0,
				1.0
			]
		},
		{
			"bufferView": 23,
			"type": "VEC2",
			"componentType": 5126,
			"count": 36,
			"byteOffset": 24,
			"min": [
				0.0,
				0.0
			],
			"max": [
				1.0,
				1.0
			]
		},
		{
			"bufferView": 24,
			"type": "SCALAR",
			"componentType": 5123,
			"count": 36,
			"byteOffset": 0,
			"min": [
				0
			],
			"max": [
				35
			]
		},
		{
			"bufferView": 25,
			"type": "VEC3",
			"componentType": 5126,
			"count": 36,
			"byteOffset": 0,
			"min": [
				-0.22534263134002686,
				-0.22534263134002686,
				-0.22534263134002686
			],
			"max": [
				0.22534263134002686,
				0.22534263134002686,
				0.22534263134002686
			]
		},
		{
			"bufferView": 25,
			"type": "VEC3",
			"componentType": 5126,
			"count": 36,
			"byteOffset": 12,
			"min": [
				-1.0,
				-1.0,
				-1.0
			],
			"max": [
				1.0,
				1.0,
				1.0
			]
		},
		{
			"bufferView": 25,
			"type": "VEC2",
			"componentType": 5126,
			"count": 36,
			"byteOffset": 24,
			"min": [
				0.0,
				0.0
			],
			"max": [
				1.0,
				1.0
			]
		}
	],
	"bufferViews": [
		{
			"buffer": 0,
			"byteOffset": 0,
			"byteLength": 72,
			"target": 34963
		},
		{
			"buffer": 0,
			"byteOffset": 72,
			"byteLength": 1152,
			"target": 34962,
			"byteStride": 32
		},
		{
			"buffer": 1,
			"byteOffset": 0,
			"byteLength": 72,
			"target": 34963
		},
		{
			"buffer": 1,
			"byteOffset": 72,
			"byteLength": 1152,
			"target": 34962,
			"byteStride": 32
		},
		{
			"buffer": 2,
			"byteOffset": 0,
			"byteLength": 72,
			"target": 34963
		},
		{
			"buffer": 2,
			"byteOffset": 72,
			"byteLength": 1152,
			"target": 34962,
			"byteStride": 32
		},
		{
			"buffer": 3,
			"byteOffset": 0,
			"byteLength": 72,
			"target": 34963
		},
		{
			"buffer": 3,
			"byteOffset": 72,
			"byteLength": 1152,
			"target": 34962,
			"byteStride": 32
		},
		{
			"buffer": 4,
			"byteOffset": 0,
			"byteLength": 72,
			"target": 34963
		},
		{
			"buffer": 4,
			"byteOffset": 72,
			"byteLength": 1152,
			"target": 34962,
			"byteStride": 32
		},
		{
			"buffer": 5,
			"byteOffset": 0,
			"byteLength": 72,
			"target": 34963
		},
		{
			"buffer": 5,
			"byteOffset": 72,
			"byteLength": 1152,
			"target": 34962,
			"byteStride": 32
		},
		{
			"buffer": 6,
			"byteOffset": 0,
			"byteLength": 72,
			"target": 34963
		},
		{
			"buffer": 6,
			"byteOffset": 72,
			"byteLength": 1152,
			"target": 34962,
			"byteStride": 32
		},
		{
			"buffer": 7,
			"byteOffset": 0,
			"byteLength": 72,
			"target": 34963
		},
		{
			"buffer": 7,
			"byteOffset": 72,
			"byteLength": 1152,
			"target": 34962,
			"byteStride": 32
		},
		{
			"buffer": 8,
			"byteOffset": 0,
			"byteLength": 72,
			"target": 34963
		},
		{
			"buffer": 8,
			"byteOffset": 72,
			"byteLength": 1152,
			"target": 34962,
			"byteStride": 32
		},
		{
			"buffer": 9,
			"byteOffset": 0,
			"byteLength": 72,
			"target": 34963
		},
		{
			"buffer": 9,
			"byteOffset": 72,
			"byteLength": 1152,
			"target": 34962,
			"byteStride": 32
		},
		{
			"buffer": 10,
			"byteOffset": 0,
			"byteLength": 72,
			"target": 34963
		},
		{
			"buffer": 10,
			"byteOffset": 72,
			"byteLength": 1152,
			"target": 34962,
			"byteStride": 32
		},
		{
			"buffer": 11,
			"byteOffset": 0,
			"byteLength": 72,
			"target": 34963
		},
		{
			"buffer": 11,
			"byteOffset": 72,
			"byteLength": 1152,
			"target": 34962,
			"byteStride": 32
		},
		{
			"buffer": 12,
			"byteOffset": 0,
			"byteLength": 72,
			"target": 34963
		},
		{
			"buffer": 12,
			"byteOffset": 72,
			"byteLength": 1152,
			"target": 34962,
			"byteStride": 32
		}
	],
	"buffers": [
		{
			"uri": "data:application/octet-stream;base64,",
			"byteLength": 1224
		},
		{
			"uri": "data:application/octet-stream;base64,",
			"byteLength": 1224
		},
		{
			"uri": "data:application/octet-stream;base64,",
			"byteLength": 1224
		},
		{
			"uri": "data:application/octet-stream;base64,",
			"byteLength": 1224
		},
		{
			"uri": "data:application/octet-stream;base64,",
			"byteLength": 1224
		},
		{
			"uri": "data:application/octet-stream;base64,",
			"byteLength": 1224
		},
		{
			"uri": "data:application/octet-stream;base64,",
			"byteLength": 1224
		},
		{
			"uri": "data:application/octet-stream;base64,",
			"byteLength": 1224
		},
		{
			"uri": "data:application/octet-stream;base64,",
			"byteLength": 1224
		},
		{
			"uri": "data:application/octet-stream;base64,",
			"byteLength": 1224
		},
		{
			"uri": "data:application/octet-stream;base64,",
			"byteLength": 1224
		},
		{
			"uri": "data:application/octet-stream;base64,",
			"byteLength": 1224
		},
		{
			"uri": "data:application/octet-stream;base64,",
			"byteLength": 1224
		}
	]
}